<svg xmlns="http://www.w3.org/2000/svg" width="203.848" height="70.473" viewBox="0 0 203.848 70.473"><defs><style>.a{opacity:0.39;}.b{fill:#fff;}</style></defs><g class="a"><g transform="translate(0 0)"><path class="b" d="M657.9,117.319a.412.412,0,0,1,.425.4V122a.4.4,0,0,1-.377.426h-7.26v2.583H656.4a.341.341,0,0,1,.37.309.345.345,0,0,1,0,.06l-.4,3.974a.5.5,0,0,1-.483.37h-5.2v6.787a.432.432,0,0,1-.426.4h-5.029a.431.431,0,0,1-.4-.426V117.716a.406.406,0,0,1,.4-.4Z" transform="translate(-563.793 -102.574)"/><path class="b" d="M770.659,148.939a.388.388,0,0,1,.4.378c0,.006,0,.013,0,.019v3.691a.388.388,0,0,1-.379.4h-.757a2.7,2.7,0,0,0-2.413,1.193v9.511a.436.436,0,0,1-.426.426h-5a.436.436,0,0,1-.426-.426V149.365a.432.432,0,0,1,.426-.4h3.208c.227,0,.37.2.455.425l.425,1.249a4.832,4.832,0,0,1,3.748-1.7Z" transform="translate(-665.931 -130.22)"/><path class="b" d="M850.881,160.2c.057.2,0,.312-.2.426a11.071,11.071,0,0,1-5.877,1.59c-5.027,0-8.375-3.294-8.375-8.2,0-4.941,3.294-8.234,8.233-8.234,4.713,0,7.5,3.038,7.5,8.2a6.47,6.47,0,0,1-.115,1.278q-.041.339-.426.339h-9.113s0,1.79,2.388,1.79a10.764,10.764,0,0,0,4.344-.938.3.3,0,0,1,.426.227Zm-4.372-7.58a1.882,1.882,0,0,0-1.9-2.073,1.982,1.982,0,0,0-2.129,2.073Z" transform="translate(-731.304 -127.459)"/><path class="b" d="M985.071,160.2c.057.2,0,.312-.2.426a11.07,11.07,0,0,1-5.877,1.59c-5.027,0-8.376-3.294-8.376-8.2,0-4.941,3.293-8.234,8.234-8.234,4.713,0,7.495,3.038,7.495,8.2a6.47,6.47,0,0,1-.113,1.278.37.37,0,0,1-.426.339H976.7s0,1.79,2.388,1.79a10.765,10.765,0,0,0,4.344-.938.3.3,0,0,1,.425.227Zm-4.373-7.58a1.882,1.882,0,0,0-1.9-2.073,1.982,1.982,0,0,0-2.129,2.073Z" transform="translate(-848.628 -127.459)"/><path class="b" d="M1119.613,131.8a.377.377,0,0,1,.37.384s0,.009,0,.013l-.395,4.313a.484.484,0,0,1-.454.4h-10.25a.431.431,0,0,1-.425-.4V117.745a.435.435,0,0,1,.425-.425h5.028a.436.436,0,0,1,.425.425V131.8Z" transform="translate(-969.144 -102.576)"/><path class="b" d="M1222.7,153.985c0,4.939-3.351,8.234-8.347,8.234s-8.349-3.294-8.349-8.2c0-4.941,3.349-8.234,8.347-8.234S1222.7,149.075,1222.7,153.985Zm-11.158.029a2.825,2.825,0,1,0,2.811-3.123,2.808,2.808,0,0,0-2.811,3.123Z" transform="translate(-1054.424 -127.459)"/><path class="b" d="M1358.195,159.775c-.454.907-1.816,1.508-3.406,1.508-4.147,0-6.9-2.981-6.9-7.467,0-5.027,2.555-8.006,6.9-8.006,2.186,0,3.917.6,4.65,1.618l.511-.794a.877.877,0,0,1,.652-.426h3.016a.4.4,0,0,1,.426.377.414.414,0,0,1,0,.049V160.37c0,4.287-3.9,7.154-8.716,7.154-2.812,0-5.309-.652-6.7-1.788a.443.443,0,0,1-.171-.483l1.448-3.519c.086-.2.251-.284.426-.171a8.142,8.142,0,0,0,5,1.59c1.788,0,2.867-.936,2.867-2.554Zm0-7.383a2.022,2.022,0,0,0-1.958-1.279c-1.42,0-2.243.993-2.243,2.7s.823,2.725,2.243,2.725a2.021,2.021,0,0,0,1.958-1.277Z" transform="translate(-1178.481 -127.485)"/><path class="b" d="M1505.773,153.985c0,4.939-3.35,8.234-8.347,8.234s-8.347-3.294-8.347-8.2c0-4.941,3.349-8.234,8.347-8.234S1505.773,149.075,1505.773,153.985Zm-11.157.029a2.825,2.825,0,1,0,2.81-3.123A2.808,2.808,0,0,0,1494.616,154.014Z" transform="translate(-1301.926 -127.459)"/><path class="b" d="M651.827,301.19c6.019,0,10.022,3.89,10.022,9.795,0,5.849-4,9.8-10.022,9.8h-6.59a.432.432,0,0,1-.4-.426V301.616a.431.431,0,0,1,.4-.426Zm.341,14.48c2.187,0,3.662-1.874,3.662-4.685s-1.476-4.684-3.662-4.684h-1.476v9.37Z" transform="translate(-563.793 -263.336)"/><path class="b" d="M803.671,344.073c.057.2,0,.312-.2.425a11.06,11.06,0,0,1-5.877,1.59c-5.027,0-8.376-3.293-8.376-8.2,0-4.939,3.293-8.234,8.234-8.234,4.712,0,7.495,3.038,7.495,8.206a6.447,6.447,0,0,1-.113,1.277.37.37,0,0,1-.426.341H795.3s0,1.788,2.388,1.788a10.758,10.758,0,0,0,4.344-.936.3.3,0,0,1,.426.227Zm-4.373-7.581a1.883,1.883,0,0,0-1.9-2.073,1.982,1.982,0,0,0-2.129,2.073Z" transform="translate(-690.027 -288.219)"/><path class="b" d="M925.017,340.723a.234.234,0,0,1,.293-.153.231.231,0,0,1,.075.04,7.134,7.134,0,0,0,3.268,1.164c.6.056.994-.284.994-.71,0-1.448-6.218-.993-6.218-6.331,0-3.038,2.583-5.083,6.444-5.083a11.145,11.145,0,0,1,5.565,1.619c.142.113.228.251.17.4l-1.448,3.351a.234.234,0,0,1-.368.113,6.525,6.525,0,0,0-3.268-1.164c-.6-.057-.994.227-.994.681,0,1.508,6.218.965,6.218,6.36,0,3.038-2.5,5.081-6.274,5.081a12.035,12.035,0,0,1-5.735-1.618c-.142-.142-.227-.284-.17-.455Z" transform="translate(-807.369 -288.219)"/><path class="b" d="M1039,286.045a3.14,3.14,0,0,1-6.245,0,3.129,3.129,0,0,1,6.245,0Zm-.6,3.322a.432.432,0,0,1,.426.4v14.792a.437.437,0,0,1-.426.426h-5a.437.437,0,0,1-.426-.426V289.766a.432.432,0,0,1,.426-.4Z" transform="translate(-902.949 -247.537)"/><path class="b" d="M1104.046,343.645c-.454.909-1.816,1.508-3.406,1.508-4.148,0-6.9-2.98-6.9-7.467,0-5.027,2.555-8.006,6.9-8.006,2.186,0,3.918.6,4.65,1.619l.512-.794a.878.878,0,0,1,.652-.426h3.017a.4.4,0,0,1,.425.375.438.438,0,0,1,0,.051V344.24c0,4.288-3.889,7.155-8.715,7.155-2.811,0-5.309-.654-6.7-1.789a.443.443,0,0,1-.171-.483l1.448-3.519c.086-.2.251-.284.426-.171a8.139,8.139,0,0,0,5,1.59c1.789,0,2.867-.936,2.867-2.555Zm0-7.381a2.023,2.023,0,0,0-1.958-1.277c-1.42,0-2.244.993-2.244,2.7s.823,2.726,2.244,2.726a2.023,2.023,0,0,0,1.958-1.277Z" transform="translate(-956.274 -288.245)"/><path class="b" d="M1242.935,331.241a6.654,6.654,0,0,1,4.571-1.591c3.861,0,5.963,1.788,5.963,6.218v9.37a.438.438,0,0,1-.426.426h-5a.4.4,0,0,1-.4-.393c0-.011,0-.022,0-.033v-8.489c0-1.131-.51-1.789-1.391-1.789a1.9,1.9,0,0,0-1.874,1.59v8.687a.437.437,0,0,1-.426.426h-5a.437.437,0,0,1-.426-.426V330.448a.36.36,0,0,1,.317-.4.349.349,0,0,1,.08,0h3.178a.462.462,0,0,1,.455.284Z" transform="translate(-1082.868 -288.219)"/><path class="b" d="M116.893,207.522H108.52a2.119,2.119,0,0,1-.1-4.237h8.476a2.119,2.119,0,0,1,.1,4.237Z" transform="translate(-92.982 -177.736)"/><path class="b" d="M114,263.7H108.52a2.119,2.119,0,0,1-.1-4.237H114a2.119,2.119,0,0,1,.1,4.237Z" transform="translate(-92.982 -226.855)"/><path class="b" d="M242.44,312a2.12,2.12,0,0,1-2.118,2.119H231.95a2.119,2.119,0,0,1-.1-4.237h8.476A2.12,2.12,0,0,1,242.44,312Z" transform="translate(-200.899 -270.938)"/><path class="b" d="M367.585,207.443h1.437a4.623,4.623,0,0,1,0,9.225H365.43a2.137,2.137,0,0,0-2.137,2.136c0,.017,0,.034,0,.051a.131.131,0,0,0,0,.028,2.118,2.118,0,0,0,1.383,1.814,2.264,2.264,0,0,0,.892.181h3.4a8.819,8.819,0,0,0,0-17.637h-3.407a2.28,2.28,0,0,0-.733.126,2.114,2.114,0,0,0-1.547,1.869v.008a2.153,2.153,0,0,0,2.1,2.2h.057Z" transform="translate(-317.625 -177.697)"/><path class="b" d="M35.232,70.479A35.237,35.237,0,1,1,60.148,60.158,35.236,35.236,0,0,1,35.232,70.479Zm0-66.7A31.466,31.466,0,1,0,66.7,35.242,31.5,31.5,0,0,0,35.232,3.776Z" transform="translate(0.005 -0.006)"/><path class="b" d="M234.422,204.77v13.4a2.119,2.119,0,0,1-4.237,0v-13.4a2.119,2.119,0,1,1,4.237-.1Q234.424,204.718,234.422,204.77Z" transform="translate(-201.254 -177.136)"/><path class="b" d="M367.456,205.138v13.4a2.118,2.118,0,1,1-4.236,0v-13.4a2.118,2.118,0,0,1,4.236,0Z" transform="translate(-317.568 -177.504)"/><path class="b" d="M109.044,220.885a2.147,2.147,0,0,1-2.294-2.182V205.13a1.937,1.937,0,0,1,.791-1.458,2.156,2.156,0,0,1,3.446,1.7v13.4A2.12,2.12,0,0,1,109.044,220.885Z" transform="translate(-93.333 -177.712)"/></g></g></svg>