<svg xmlns="http://www.w3.org/2000/svg" width="129.841" height="64.406" viewBox="0 0 129.841 64.406"><defs><style>.a{opacity:0.39;}.b{fill:#fff;}</style></defs><g class="a"><g transform="translate(0 0)"><g transform="translate(21.738)"><path class="b" d="M185.165,22.955c-2.706-3.9-7.783-4.091-10.6-.083-1.227,1.445-11.1,13.994-14.529,18.353l2.689,3.4c3.633-4.592,14.371-18.17,14.888-18.8a2.68,2.68,0,0,1,4.434,0c1.211,1.479,5.7,7.2,9.486,11.983a61.348,61.348,0,0,1,4.659,6.545c2.188,3.665-1.385,7.1-2.78,8.642L181.991,38.579a2.83,2.83,0,0,0-4.383-.058L166.67,52.372c-.443-.575-2.7-3.415-5.035-6.362l-2.689-3.39c-1.127-1.428-14.194-18.069-15.615-19.747-2.8-4.008-7.881-3.816-10.595.083-.209.235-5.987,7.574-10.489,13.278-1.853,2.463-3.356,4.676-4.133,5.978-3.674,6.154,1.545,12.174,4.342,14.646a3.708,3.708,0,0,0,2.238.96c.626,0,1.285.051,2.371-1.293l11.039-13.962s10.111,12.809,11.322,14.312a2.239,2.239,0,0,0,3.624-.017c.693-.893,2.663-3.382,4.817-6.1l-2.68-3.39c-1.92,2.431-3.582,4.534-3.95,5.011L140.284,38.528a2.834,2.834,0,0,0-4-.343,2.752,2.752,0,0,0-.384.393L124.486,53c-1.394-1.537-4.969-4.977-2.781-8.642a61.527,61.527,0,0,1,4.66-6.547c3.782-4.785,8.275-10.512,9.485-11.982a2.68,2.68,0,0,1,4.434,0c.593.718,14.262,18.01,15.965,20.156l2.821,3.549c2.455,3.1,4.96,6.262,5.787,7.314a2.238,2.238,0,0,0,3.624.017C169.693,55.37,179.8,42.553,179.8,42.553l11.039,13.953c1.085,1.344,1.745,1.285,2.371,1.293a3.612,3.612,0,0,0,2.238-.96c2.8-2.472,8.024-8.484,4.342-14.646-.776-1.3-2.28-3.515-4.133-5.978C191.152,30.538,185.374,23.19,185.165,22.955Z" transform="translate(-116.849 -19.948)"/></g><g transform="translate(63.827 21.278)"><path class="b" d="M153.055,39.734l-2.689-3.4c-.558.71-.943,1.195-1.1,1.394l2.7,3.39,1.093-1.385" transform="translate(-149.265 -36.335)"/></g><g transform="translate(60.077 26.038)"><path class="b" d="M147.455,40.018l-1.078,1.361,2.68,3.4,1.085-1.369L147.438,40Z" transform="translate(-146.377 -40.001)"/></g><g transform="translate(0 49.283)"><path class="b" d="M117.825,59.182a6.476,6.476,0,0,0-3.8-1.261c-.142,0-.3.009-.443.017a6.8,6.8,0,0,0-3.639,1.261l-.192.142a5.959,5.959,0,0,0-1.92-1.1,5.7,5.7,0,0,0-1.913-.335,5.621,5.621,0,0,0-.643.042,6.5,6.5,0,0,0-2.071.7.661.661,0,0,0-.2-.277,1.014,1.014,0,0,0-.761-.208h-1.219a.886.886,0,0,0-.709.208.844.844,0,0,0-.209.686V71.8a1.286,1.286,0,0,0,.209.861.963.963,0,0,0,.709.358h1.219a1.352,1.352,0,0,0,.852-.358,1.3,1.3,0,0,0,.351-.861V61.578a3.977,3.977,0,0,1,1.846-.5,2.879,2.879,0,0,1,2.113.71,2.457,2.457,0,0,1,.8,2.037V71.8a1.3,1.3,0,0,0,.284.852,1.168,1.168,0,0,0,.784.36h1.219a1.116,1.116,0,0,0,.769-.36,1.294,1.294,0,0,0,.275-.86V62.939a4.609,4.609,0,0,0-.2-1.252,4.932,4.932,0,0,1,2.113-.6,3.011,3.011,0,0,1,2.162.71,2.491,2.491,0,0,1,.852,2.037v7.975a1.3,1.3,0,0,0,.284.86,1.152,1.152,0,0,0,.784.36h1.219a1.25,1.25,0,0,0,.818-.36,1.3,1.3,0,0,0,.318-.86V62.939a4.469,4.469,0,0,0-2.063-3.758" transform="translate(-100.107 -57.904)"/></g><g transform="translate(21.351 49.3)"><path class="b" d="M124.057,69.782a3.978,3.978,0,0,1-3.014-1.269,4.479,4.479,0,0,1,0-6.162,4.212,4.212,0,0,1,6.029,0,4.482,4.482,0,0,1,0,6.162,3.979,3.979,0,0,1-3.015,1.269m5.3-9.66a7.481,7.481,0,1,0,2.2,5.3,7.27,7.27,0,0,0-2.2-5.3" transform="translate(-116.551 -57.917)"/></g><g transform="translate(37.991 49.275)"><path class="b" d="M146.794,59.183a6.189,6.189,0,0,0-3.7-1.261c-.142,0-.251.009-.392.017a6.724,6.724,0,0,0-3.616,1.261l-.175.142a6.062,6.062,0,0,0-3.824-1.444,5.643,5.643,0,0,0-.644.042,6.464,6.464,0,0,0-2.07.7.668.668,0,0,0-.2-.275,1.011,1.011,0,0,0-.76-.209h-1.219a.767.767,0,0,0-.66.209c-.167.175-.167.375-.167.7V71.809c0,.334-.008.684.167.86a.873.873,0,0,0,.66.36h1.219a1.134,1.134,0,0,0,.769-.36,1.294,1.294,0,0,0,.275-.86V61.58a4.042,4.042,0,0,1,1.92-.5,3.119,3.119,0,0,1,2.2.71,2.512,2.512,0,0,1,.884,2.037V71.8a1.247,1.247,0,0,0,.243.852,1.07,1.07,0,0,0,.743.36h1.219a1.15,1.15,0,0,0,.776-.36,1.294,1.294,0,0,0,.275-.86V62.941a4.511,4.511,0,0,0-.2-1.252,4.942,4.942,0,0,1,2.113-.6,3.043,3.043,0,0,1,2.171.71,2.491,2.491,0,0,1,.852,2.037v7.975a1.344,1.344,0,0,0,.275.86,1.152,1.152,0,0,0,.776.36h1.219c.335,0,.443-.184.618-.36s.117-.526.117-.86V62.941a4.322,4.322,0,0,0-1.87-3.758" transform="translate(-129.367 -57.898)"/></g><g transform="translate(59.176 49.309)"><path class="b" d="M150.317,61.857a3.46,3.46,0,0,1,4.359.008,4.175,4.175,0,0,1,1.176,2.046h-6.713a4.171,4.171,0,0,1,1.178-2.054m7.139-1.745a6.706,6.706,0,0,0-9.911,0,7.865,7.865,0,0,0-1.862,5.318,7.4,7.4,0,0,0,2.062,5.41,6.839,6.839,0,0,0,5.026,2.1,7.119,7.119,0,0,0,5.152-1.911,1.014,1.014,0,0,0,.343-.752,1.2,1.2,0,0,0-.36-.727l-.684-.826c-.242-.243-.417-.526-1.444.134a4.578,4.578,0,0,1-3,.935A3.614,3.614,0,0,1,150.417,69a3.263,3.263,0,0,1-1.27-2H158.3a1.042,1.042,0,0,0,.767-.258,1.026,1.026,0,0,0,.267-.76v-.552a7.968,7.968,0,0,0-1.879-5.326" transform="translate(-145.683 -57.924)"/></g><g transform="translate(74.565 49.299)"><path class="b" d="M169.174,60.139a6.289,6.289,0,0,0-2.555-1.754,6.916,6.916,0,0,0-2.88-.458,7.245,7.245,0,0,0-2.973.8.68.68,0,0,0-.234-.375,1.021,1.021,0,0,0-.76-.209h-1.219a1.011,1.011,0,0,0-.76.209.9.9,0,0,0-.258.7V71.794a1.291,1.291,0,0,0,.258.861,1.079,1.079,0,0,0,.76.358h1.219a1.211,1.211,0,0,0,.8-.358,1.3,1.3,0,0,0,.3-.861V61.942a4.744,4.744,0,0,1,2.781-.869,3.289,3.289,0,0,1,2.279.735,2.315,2.315,0,0,1,.876,2.013v7.974a1.371,1.371,0,0,0,.335.861,1.308,1.308,0,0,0,.835.358H169.2a1.226,1.226,0,0,0,.809-.358,1.308,1.308,0,0,0,.309-.861V62.935a4.209,4.209,0,0,0-1.144-2.8" transform="translate(-157.535 -57.917)"/></g><g transform="translate(88.917 46.177)"><path class="b" d="M178.5,70.5l-.034-.032-.567-.686a.943.943,0,0,0-1.537.1,1.539,1.539,0,0,1-1.252.609A1.529,1.529,0,0,1,173.6,68.88V62.2h2.229a.972.972,0,0,0,.718-.334,1.2,1.2,0,0,0,.226-.827v-.884a.762.762,0,0,0-.226-.652c-.175-.175-.392-.151-.718-.151h-2.222V56.8a1.392,1.392,0,0,0-.275-.893,1.145,1.145,0,0,0-.769-.392h-1.218a1.085,1.085,0,0,0-.752.392,1.387,1.387,0,0,0-.251.893v2.555H169.4c-.334,0-.484-.025-.65.151s-.16.317-.16.643v.886c0,.334-.017.65.16.827a.833.833,0,0,0,.65.334h.952v6.679a4.64,4.64,0,0,0,4.509,4.76h.083a4.375,4.375,0,0,0,3.382-1.461,2.038,2.038,0,0,0,.475-.786,1.074,1.074,0,0,0-.3-.886" transform="translate(-168.589 -55.512)"/></g><g transform="translate(114.827 49.309)"><path class="b" d="M199.065,68.511a4.215,4.215,0,0,1-6.029,0,4.482,4.482,0,0,1,0-6.162,4.212,4.212,0,0,1,6.029,0,4.479,4.479,0,0,1,0,6.162m2.288-8.384a7.479,7.479,0,1,0,2.2,5.3,7.264,7.264,0,0,0-2.2-5.3" transform="translate(-188.544 -57.924)"/></g><g transform="translate(99.731 49.309)"><path class="b" d="M181.535,61.857a3.458,3.458,0,0,1,4.357.008,4.176,4.176,0,0,1,1.178,2.046h-6.713a4.161,4.161,0,0,1,1.178-2.054m7.239-1.745a6.358,6.358,0,0,0-5.009-2.188,6.28,6.28,0,0,0-4.977,2.188,7.871,7.871,0,0,0-1.871,5.318,7.4,7.4,0,0,0,2.054,5.41,6.827,6.827,0,0,0,5.027,2.1,7.121,7.121,0,0,0,5.152-1.911,1.008,1.008,0,0,0,.341-.752,1.2,1.2,0,0,0-.358-.727l-.686-.826c-.242-.243-.417-.526-1.444.134a4.573,4.573,0,0,1-3,.935A3.628,3.628,0,0,1,181.643,69a3.222,3.222,0,0,1-1.269-2h9.142a1.313,1.313,0,0,0,.869-.258,1.093,1.093,0,0,0,.377-.76v-.552a8.076,8.076,0,0,0-1.988-5.326" transform="translate(-176.917 -57.924)"/></g></g></g></svg>