<svg xmlns="http://www.w3.org/2000/svg" width="346.877" height="97" viewBox="0 0 346.877 97"><defs><style>.a{fill:#48d978;}.b{fill:#fff;}</style></defs><g transform="translate(-37.319 -68.337)"><g transform="translate(98.141 68.337)"><path class="a" d="M119.461,68.337a32.368,32.368,0,1,1-32.277,32.457A32.31,32.31,0,0,1,119.461,68.337Zm0,50.35a17.982,17.982,0,1,0-17.891-17.892A18.016,18.016,0,0,0,119.461,118.687Z" transform="translate(-87.184 -68.337)"/></g><path class="b" d="M236.954,100.171,218.534,71.628a1.64,1.64,0,0,1,1.55-2.554H233.4a1.97,1.97,0,0,1,1.46.821l10.487,16.962h.091l10.669-16.962a1.814,1.814,0,0,1,1.46-.821h13.313c1.55,0,2.371,1.367,1.55,2.554l-18.512,28.543,19.151,30.186a1.593,1.593,0,0,1-1.459,2.553H258.933a2.031,2.031,0,0,1-1.55-.821l-11.946-18.421h-.183L233.58,132.089a2,2,0,0,1-1.55.821H219.355c-1.55,0-2.371-1.367-1.55-2.553Z" transform="translate(39.589 0.162)"/><path class="b" d="M269.048,70.8a1.794,1.794,0,0,1,1.733-1.733h10.942a1.794,1.794,0,0,1,1.732,1.733v60.365a1.793,1.793,0,0,1-1.732,1.732H270.781a1.793,1.793,0,0,1-1.733-1.732Z" transform="translate(50.92 0.161)"/><path class="b" d="M287.436,124.071l4.226-7.462a2.319,2.319,0,0,1,3.057-.54c.359.181,6.833,4.945,12.767,4.945,3.6,0,6.2-2.247,6.2-5.394,0-3.776-3.147-6.654-9.26-9.081-7.732-3.058-17.444-9.081-17.444-19.871,0-8.9,6.923-17.892,20.77-17.892,9.35,0,16.543,4.766,19.241,6.744,1.078.629.9,2.248.539,2.877l-4.586,6.922c-.629.99-2.247,1.8-3.057,1.17-.809-.45-7.372-5.395-12.857-5.395-3.236,0-5.664,2.158-5.664,4.586,0,3.326,2.7,5.844,9.8,8.721,7.014,2.787,18.162,8.271,18.162,20.5,0,9.26-8,18.611-21.219,18.611-11.689,0-18.162-4.855-20.231-6.922C286.986,125.688,286.716,125.33,287.436,124.071Z" transform="translate(54.862 0.096)"/><g transform="translate(185.893 139.358)"><path class="a" d="M159.308,148.754l1.7-2.994a.929.929,0,0,1,1.226-.217c.145.072,2.743,1.985,5.124,1.985a2.261,2.261,0,0,0,2.489-2.165c0-1.515-1.262-2.67-3.715-3.645-3.1-1.226-7-3.643-7-7.973,0-3.573,2.779-7.181,8.336-7.181a13.419,13.419,0,0,1,7.722,2.707.912.912,0,0,1,.216,1.154l-1.839,2.779c-.254.4-.9.722-1.227.47-.326-.181-2.959-2.165-5.161-2.165a2.092,2.092,0,0,0-2.272,1.839c0,1.336,1.082,2.346,3.932,3.5,2.814,1.118,7.289,3.32,7.289,8.227,0,3.717-3.212,7.468-8.516,7.468-4.69,0-7.288-1.948-8.119-2.779C159.127,149.4,159.02,149.259,159.308,148.754Z" transform="translate(-159.127 -126.563)"/><path class="a" d="M188.114,126.563a12.99,12.99,0,1,1-12.954,13.026A12.966,12.966,0,0,1,188.114,126.563Zm0,20.206a7.217,7.217,0,1,0-7.181-7.181A7.23,7.23,0,0,0,188.114,146.769Z" transform="translate(-155.604 -126.563)"/><path class="a" d="M200.007,127.544a.685.685,0,0,1,.686-.685h4.293a.71.71,0,0,1,.687.685v19.268h8.587a.685.685,0,0,1,.685.685v3.932a.685.685,0,0,1-.685.685H200.692a.685.685,0,0,1-.686-.685Z" transform="translate(-150.144 -126.498)"/><path class="a" d="M214.59,127.544a.709.709,0,0,1,.685-.685h4.437a.685.685,0,0,1,.687.685v14.613a4.475,4.475,0,1,0,8.948,0V127.544a.685.685,0,0,1,.686-.685h4.439a.709.709,0,0,1,.685.685v14.9a10.287,10.287,0,0,1-20.567,0Z" transform="translate(-146.939 -126.498)"/><path class="a" d="M239.928,132.162h-5.16a.685.685,0,0,1-.685-.685v-3.932a.685.685,0,0,1,.685-.685H250.79a.685.685,0,0,1,.685.685v3.932a.685.685,0,0,1-.685.685H245.63v19.268a.71.71,0,0,1-.687.685h-4.33a.71.71,0,0,1-.685-.685Z" transform="translate(-142.656 -126.498)"/><path class="a" d="M251.3,127.544a.709.709,0,0,1,.685-.685h4.33a.709.709,0,0,1,.686.685v23.886a.709.709,0,0,1-.686.685h-4.33a.709.709,0,0,1-.685-.685Z" transform="translate(-138.873 -126.498)"/><path class="a" d="M272.5,126.563a12.99,12.99,0,1,1-12.954,13.026A12.967,12.967,0,0,1,272.5,126.563Zm0,20.206a7.217,7.217,0,1,0-7.181-7.181A7.231,7.231,0,0,0,272.5,146.769Z" transform="translate(-137.06 -126.563)"/><path class="a" d="M284.369,127.212a.678.678,0,0,1,.686-.649h.9l14.4,13.855h.035V127.61a.685.685,0,0,1,.687-.685H305.4a.71.71,0,0,1,.687.685v24.284a.679.679,0,0,1-.687.649h-.577a1.072,1.072,0,0,1-.47-.181l-14.251-14.325h-.037V151.5a.684.684,0,0,1-.685.685h-4.294a.709.709,0,0,1-.685-.685Z" transform="translate(-131.606 -126.563)"/><path class="a" d="M306.113,148.754l1.7-2.994a.929.929,0,0,1,1.226-.217c.145.072,2.743,1.985,5.124,1.985a2.261,2.261,0,0,0,2.489-2.165c0-1.515-1.262-2.67-3.717-3.645-3.1-1.226-7-3.643-7-7.973,0-3.573,2.779-7.181,8.336-7.181a13.415,13.415,0,0,1,7.721,2.707.914.914,0,0,1,.217,1.154l-1.841,2.779c-.253.4-.9.722-1.227.47-.324-.181-2.958-2.165-5.16-2.165a2.093,2.093,0,0,0-2.274,1.839c0,1.336,1.083,2.346,3.934,3.5,2.814,1.118,7.288,3.32,7.288,8.227,0,3.717-3.212,7.468-8.515,7.468-4.691,0-7.288-1.948-8.119-2.779C305.933,149.4,305.826,149.259,306.113,148.754Z" transform="translate(-126.868 -126.563)"/></g><path class="b" d="M223.668,70.062a1.029,1.029,0,0,0-1.073-.989H218.62v.007a3.236,3.236,0,0,0-1.9.982l-55.984,60.511c-1.077,1.169-.9,2.337.454,2.337h12.884a5.818,5.818,0,0,0,4.23-2.158l6.546-7.193H209.3l-.032,7.1c.023,1.708.494,2.247,2.113,2.247h9.98a2.631,2.631,0,0,0,2.6-2.337Zm-27.8,41.27L209.437,96.5h.09l.007,14.836Z" transform="translate(26.966 0.162)"/><path class="a" d="M207.486,69.073H192.671a3.1,3.1,0,0,0-1.991.989l-30.135,32.818h-.539l.439-31v-.465a2.654,2.654,0,0,0-2.619-2.338H147.444a2.652,2.652,0,0,0-2.618,2.338l-.159,60.51a.963.963,0,0,0,1.025.986v0h3.8a2.991,2.991,0,0,0,1.989-.989l56.442-60.51C209.009,70.243,208.835,69.073,207.486,69.073Z" transform="translate(23.589 0.162)"/><path class="a" d="M90.448,69.248H79.512A1.731,1.731,0,0,0,77.78,70.98v32.351h-.09L41.969,68.953h0l-.176-.168a2.029,2.029,0,0,0-1.309-.448H39.05a1.713,1.713,0,0,0-1.731,1.641l.09,61.332a1.793,1.793,0,0,0,1.732,1.731H49.986a1.73,1.73,0,0,0,1.731-1.731V97.317h.091l36,36.18a2.687,2.687,0,0,0,1.186.455h1.458a1.712,1.712,0,0,0,1.731-1.639V70.98A1.793,1.793,0,0,0,90.448,69.248Z"/></g></svg>