<svg xmlns="http://www.w3.org/2000/svg" width="178.438" height="64.92" viewBox="0 0 178.438 64.92"><defs><style>.a{opacity:0.39;}.b{fill:#fff;}</style></defs><g class="a"><path class="b" d="M441.137,39.348c4.535-.5,2.056-5.906,1.714-5.8-2.953.712-5.906,1.345-8.937,1.846,5.036-6.8,7.646-18.244,5.167-22.014-2.135-3.3-7.435-2.03-8.938,4.324A116.948,116.948,0,0,0,427.8,36.211l-1.845.132c-.132,0-1.5,1.4.264,1.9l1.45.369c-.079,1.476-.132,2.953-.185,4.429a41.224,41.224,0,0,1-3.665,8.278c-1.635,2.663-2.742,2.136-2.663-6.987.132-24.888,1.292-30.293,1.45-31.664.079-.475-3.348-1.846-5.4,2.136-1.687,3.322-2.426,13.34-2.241,28.605-1.45,3.717-3.375,6.644-5.167,8.147-3.691,3.085-7.672,2.663-8.911-2.742,8.911-5.4,16.794-16.662,6.723-18.64-7.118-1.292-13.578,6.512-13.156,18.033.132,3.849,1.45,8.99,4.93,10.15s7.751-.422,11.442-4.8a34.387,34.387,0,0,0,4.192-6.486q.026,1.45.079,2.979c.132,3.006.554,7.408,2.4,8.3s4.719-.9,7.408-5.22a32.631,32.631,0,0,0,2.5-4.772c-.132,6.354-.132,12.47-.079,17.4,0,1.977-.079,7.7.343,7.7,2.953.185,5.563-3.375,5.563-10.809-.079-9.465.079-17.111.264-23.333A46.347,46.347,0,0,0,441.137,39.348Zm-6.275-18.191c.9-5.141,2.267-5.8,2.953-4.587,1.107,2.03-.554,10.625-4.139,16.662a99.513,99.513,0,0,1,1.186-12.075Zm-34.327,23.2c.264-7.461,2.61-13.288,5.141-12.6,2.056.554.606,11.179-5.062,15.344a17.716,17.716,0,0,1-.079-2.742Z" transform="translate(-290.44 -8.55)"/><path class="b" d="M305.077,29.007c-8.99-8.068-6.143-14.263.58-14.843,3.955-.343,6.618,2.267,5.958,5.167-1.107,4.825-7.593,2.953-7.7,3.19-.369,1.213,2.215,7.487,7.962,4.667,6.934-3.269,5.774-15.555-5.3-14.949-11.548.606-15.766,12.866-3.533,24.071,7.856,7.145,10.229,10.625,9.307,15.291s-5.4,6.037-9.887,5.563c-5.088-.58-7.619-4.587-7.277-9.1.105-2.478,1.846-3.928,4.482-4.06a9.461,9.461,0,0,1,3.876.844c2.426-4.9-4.4-10.018-8.858-6.169-6.512,5.747-4.508,19.694,6.8,21.092,7.909,1.028,16-3.506,15.792-11.838C317.2,42.137,314.541,37.549,305.077,29.007Z" transform="translate(-214.28 -8.992)"/><path class="b" d="M552.166,171.667c-1.5-.105-2.452.5-2.689,1.819a1.806,1.806,0,0,0,1.186,2.267,3.291,3.291,0,0,0,2.795-1.925C554.117,172.432,553.141,171.746,552.166,171.667Z" transform="translate(-404.58 -126.395)"/><path class="b" d="M597.524,117.511a23.415,23.415,0,0,1-2.5,6.38c-.844,1.345-1.371,1.055-1.318-3.427.079-3.48.132-6.037.237-8.015a7.3,7.3,0,0,0,1.714,0c2.215-.237,1.055-3.137.87-3.032a14.5,14.5,0,0,1-2.5.685c.211-2.557.343-3.348.369-3.638s-1.924-.712-2.663,1.055a13.9,13.9,0,0,0-.712,3.032l-1.477.132c-.106,0-.765.738.105,1a12.024,12.024,0,0,0,1.239.343c-.185,2.215-.29,5.036-.237,8.226a10,10,0,0,1-2.452,3.77c-1.819,1.529-3.77,1.318-4.376-1.345,4.376-2.663,8.252-8.2,3.3-9.175-3.507-.633-6.67,3.19-6.486,8.858a10.179,10.179,0,0,0,.132,1.318l-.132.237c-.87,1.424-1.555.949-1.318-3.638.158-4.086.132-6.011-1.055-6.617s-2.452.237-3.506,2.531a27.521,27.521,0,0,0-1.45,4.218,60.56,60.56,0,0,1,.712-6.7,2.22,2.22,0,0,0-2.979,1.081c-.685,1.766-.87,4.8-.738,8.489,0,1.476.079,3.665.712,4.086a1.985,1.985,0,0,0,1.9.026c.211-.211.079-.738.158-2.373h0a46.892,46.892,0,0,1,2.215-7.936c.659-1.318,1.292-1,1.081,3.48-.106,2.742.211,6.38,1.107,6.8s2.267-.422,3.559-2.452a3.552,3.552,0,0,0,2,2.452c1.793.606,3.8-.211,5.642-2.373a16.75,16.75,0,0,0,1.977-3.032c0,.422.026.87.052,1.292.026,1.476.238,3.638,1.134,4.086s2.373-.448,3.665-2.557a27.617,27.617,0,0,0,2.821-7.408C598.526,116.694,597.656,116.878,597.524,117.511Zm-13.815,2.926c.132-3.665,1.292-6.538,2.531-6.2s.316,5.484-2.5,7.54A8.676,8.676,0,0,1,583.709,120.438Z" transform="translate(-419.909 -78.198)"/><path class="b" d="M40.134,18.1c5.747-2.557,9.913-6.538,17.321-7.356h0c.211-7.54-6.2-3.586-7.013-3.058-3.533,2.5-6.723,5.668-10.2,7.778C40.45,6.605,38.1.252,33.859-.012,29.008-.2,24.526,5.577,25.818,13.645a7.332,7.332,0,0,0,8.595,6.222,23.65,23.65,0,0,0,3.3-.791,48.032,48.032,0,0,1-.448,4.957c-1.872,12.286-8.648,19.8-11.706,18.982-1.134-.211-2.267-1.186-3.955-12.5a47.719,47.719,0,0,0,.685-4.851c1.424-15.555-.949-19.826-2.162-20.116-3.4-.712-5.484,3.322-4.456,15.555.5,6.09,1.081,11.047,1.687,14.975l.132.712c-2.926,6.38-6.617,8.173-8.094,7.356s-2.162-2.61-2.926-25.916A102.9,102.9,0,0,1,6.993,4.47C6.967,4,2.011,3.257.771,6.975-.151,9.848-.072,14.3.165,19.656.771,36.872,1.984,47.1,4.146,49.579c2.689,3.085,9.069-.448,13.894-8.358h0l.237-.4c.975,4.139,1.951,6.617,2.953,7.778C24.737,52.664,36.5,41.7,39.474,23.611a51.914,51.914,0,0,0,.659-5.51Zm-5.247-.5c-3.981.817-6.723-1.345-7.25-4.8-.448-3.876,1.925-6.565,5.431-6.011,2.874.422,4.508,4.245,4.64,10.018a19.457,19.457,0,0,1-2.821.791Z" transform="translate(-0.009 0.016)"/><path class="b" d="M182.134,31.586c-2.61-1.371-6.591-.685-9.808,10.282.264-21.724,1.292-26.654,1.45-28.025.132-.475-3.348-1.793-5.4,2.188-1.687,3.322-2.426,13.314-2.241,28.658a21.191,21.191,0,0,1-5.141,8.094c-3.691,3.085-7.672,2.663-8.911-2.742,8.911-5.4,16.794-16.662,6.723-18.64-7.118-1.292-13.578,6.512-13.156,18.033.132,3.849,1.45,8.99,4.93,10.15s7.751-.422,11.442-4.8a34.377,34.377,0,0,0,4.166-6.433q.026,1.45.053,2.953c.132,3.006.554,7.408,2.4,8.226s4.245.211,7.329-2.821a31.892,31.892,0,0,0,8.3-15.634C185.139,36.094,184.19,32.667,182.134,31.586ZM151.788,45.559c.264-7.461,2.61-13.288,5.141-12.6,2.056.554.606,11.179-5.062,15.344a17.592,17.592,0,0,1-.105-2.742Zm26.312-1.45c-.606,6.433-2.136,10.018-3.849,11.732s-1.925,0-1.977-6.644c0-.079.079-.079.079-.132,1.977-9.808,3.849-14.474,5.22-12.339.58.9.844,3.559.5,7.382Z" transform="translate(-107.235 -9.752)"/></g></svg>